<svg xmlns="http://www.w3.org/2000/svg" viewBox="0 0 287 178"><defs><style>.a,.m{fill:#f6f7eb;}.b,.h{fill:#c92f24;}.c{fill:#46668a;}.d{fill:#1f1d1e;}.e,.i,.j,.l{fill:#f8c605;}.f,.g,.k{fill:none;}.f,.g{stroke:#c92f24;}.f,.g,.h,.i,.j,.k,.l,.m{stroke-miterlimit:10;}.f,.h,.l{stroke-width:2px;}.g{stroke-width:4px;}.h,.i,.j,.k,.l,.m{stroke:#1f1d1e;}.j,.k{stroke-width:0.75px;}</style></defs><title>imageslogo</title><rect class="a" width="287" height="178"/><rect class="b" x="194" y="93" width="85" height="85"/><rect class="c" x="101" y="93" width="85" height="85"/><rect class="d" x="8" y="93" width="85" height="85"/><rect class="e" x="194" width="85" height="85"/><rect class="b" x="101" width="85" height="85"/><rect class="c" x="8" width="85" height="85"/><circle class="f" cx="50.8" cy="134.7" r="30.3"/><polyline class="g" points="35 108.9 35 129.2 38.9 133.1 38.9 162.5"/><polyline class="g" points="66.6 108.9 66.6 129.2 62.7 133.1 62.7 162.5"/><circle class="g" cx="50.8" cy="145.8" r="8.3"/><polygon class="h" points="176.7 121.3 145.8 156.5 114.8 121.3 125.8 110.6 165.7 110.6 176.7 121.3"/><path class="e" d="M158,117.1a20.4,20.4,0,0,0-2.7-2.3l-.9-.7h4.3v3.6Z"/><path class="d" d="M158.3,114.5v2.3l-2.7-2.3h2.7m.7-.7h-5.7l1.8,1.3a20.4,20.4,0,0,1,2.7,2.3l1.2,1.2v-4.8Z"/><path class="i" d="M156.8,135.8c0-6.1-18.6-.8-27.8-4.3l4.7,5.1a10.1,10.1,0,0,1,11,1.9C153.5,138.5,156.8,138.3,156.8,135.8Z"/><path class="i" d="M164.8,115.3v7.1h-9.3c0-11.1-21.9-8.3-21.9-3.4,0,10.7,24.7-1.3,30.6,10.5l6.9-7.5Z"/><path class="i" d="M131.4,114.5h-4l-7,7.5,3.8,4.2C123.6,122.3,126.6,117.7,131.4,114.5Z"/><path class="i" d="M138.9,142.3l6.9,7.5,6.7-7.4A47.7,47.7,0,0,1,138.9,142.3Z"/><path class="j" d="M238.6,140.7l-5.3,8.6-7-13.3a1.8,1.8,0,0,0-1.5-1h-8.6l-12-14.3h21.9a5.1,5.1,0,0,1,4.4,2.8l2.8,5.7,5.3-8.5,5.2,8.5,2.9-5.7a4.9,4.9,0,0,1,4.4-2.8h21.8L261,135h-8.7a1.8,1.8,0,0,0-1.5,1l-6.9,13.3Z"/><path class="k" d="M208,125.3h16.1a3.5,3.5,0,0,1,3,2l5.9,12.5,5.6-9.2,5.5,9.2,6-12.5a3.4,3.4,0,0,1,3-2h16"/><line class="k" x1="212.3" y1="130.5" x2="228.6" y2="130.5"/><line class="k" x1="264.8" y1="130.5" x2="248.6" y2="130.5"/><path class="d" d="M260.7,30.5A41.5,41.5,0,0,1,242,36.7l-.8-7.6-.9,3.3h-3.5l-.9-3.3-.7,7.6a41.1,41.1,0,0,1-18.7-6.2L202.3,43.7c12.4-4.8,13.5-.5,17.8,4.1h.3l6.7-1.8a4.7,4.7,0,0,1,4.4,1.1l7.1,7.2,7.1-7.2a4.7,4.7,0,0,1,4.4-1.1l6.7,1.8h.3c4.3-4.6,5.4-8.9,17.8-4.1Z"/><ellipse class="l" cx="144.8" cy="41.4" rx="33.5" ry="18.7"/><path class="d" d="M144.8,54.2l-4.6-6a3,3,0,0,0-4.5-.3l-2.5,2.5L130,47.3a4.1,4.1,0,0,0-4.9-.7,3.9,3.9,0,0,0-.8,6c-5.1-2.9-9.7-6.8-9.7-11.2,0-6.3,8-11.7,17.6-14.4a5.9,5.9,0,0,0-1.7,7.2c1.2,2.4,3.8,3.3,6.5,2.7,4.6-1.1,4.6-6.3,4.6-10.6a10.9,10.9,0,0,0,1.8,3.1h2.7a10.9,10.9,0,0,0,1.8-3.1c0,4.3,0,9.5,4.7,10.6,2.6.6,5.3-.3,6.4-2.7a6,6,0,0,0-1.6-7.2c9.5,2.7,17.5,8.1,17.5,14.4,0,4.4-4.6,8.3-9.6,11.2a4,4,0,0,0-.8-6,4.2,4.2,0,0,0-5,.7l-3.1,3.1-2.6-2.5a3,3,0,0,0-4.5.3Z"/><path class="m" d="M31.4,33.9a11.9,11.9,0,0,1-3.8-8.3,9.3,9.3,0,0,1,2.1-5.9C15.3,28.1,24.9,46.6,44.2,61s30.7,5.2,33.1.8l-1-2.6c-9.8,9.8-29.9-7.8-29.9-7.8l-4.5,4.5L30.7,44.5l-.8-5.2Z"/><path class="a" d="M33.9,24.3a1.1,1.1,0,0,1,1.1-.8H48.2a4.2,4.2,0,0,1,3.3,1.6,4.5,4.5,0,0,1,.8,3.7C45.4,55,47.8,50,41,56.7H26.5a.8.8,0,0,1-.6-.2.6.6,0,0,1-.1-.7Z"/><path class="d" d="M33.4,24.2a1.8,1.8,0,0,1,.7-1l.6-.2H48.5a4.1,4.1,0,0,1,1.9.5,4.8,4.8,0,0,1,2.4,2.8,5.8,5.8,0,0,1,.3,1.9c0,.3-.1.6-.1.9l-.3.8-.8,3.3L48.8,46a24.5,24.5,0,0,1-2.4,6.5,15.2,15.2,0,0,1-2.2,2.7l-2.3,2.4-.4.4H26a1.3,1.3,0,0,1-.6-.7,2,2,0,0,1-.1-1.3l.2-.7.4-1.5,1.5-5.9c1.1-3.9,2.1-7.8,3.1-11.7Zm1,.2L28.3,47.9l-1.5,5.8-.4,1.5-.2.7a.4.4,0,0,0,.1.3H41l-.3.2,2.4-2.3a11.7,11.7,0,0,0,2.1-2.4,22.1,22.1,0,0,0,2.3-6.1l3.2-12.8.9-3.3.2-.8a1.5,1.5,0,0,0,.1-.7,3.2,3.2,0,0,0-.2-1.4,3.7,3.7,0,0,0-1.8-2.2,4.2,4.2,0,0,0-1.5-.4H34.6Z"/><path class="d" d="M62.2,28c4.9,5.2,9.4,10.9,12.4,17.4a44.5,44.5,0,0,1,1.9,5.1,41.1,41.1,0,0,1,1.3,5.3,17.5,17.5,0,0,1,0,5.6,10.9,10.9,0,0,1-2.3,5.3,10.7,10.7,0,0,1-5,3.4,15.1,15.1,0,0,1-5.9.8,31.1,31.1,0,0,1-10.9-2.6A60.1,60.1,0,0,1,35.6,56.1a55.7,55.7,0,0,1-7.2-8.2,50.9,50.9,0,0,1-5.7-9.5,34,34,0,0,1-3-10.9,20.3,20.3,0,0,1,.5-6A13.9,13.9,0,0,1,23.1,16a12.2,12.2,0,0,1,5.3-3.3,16.8,16.8,0,0,1,5.9-.7,28.7,28.7,0,0,1,10.9,2.7L50,17.3a50.4,50.4,0,0,1,4.4,3.3l4,3.6C59.7,25.4,61,26.7,62.2,28ZM61,29.2a56.5,56.5,0,0,0-8.2-6.4,40.9,40.9,0,0,0-9.3-4.2,27.3,27.3,0,0,0-4.8-1,14.1,14.1,0,0,0-4.6.1,7.4,7.4,0,0,0-3.6,1.5l-1,1.1-.6,1-.2.5-.2.5c-.2.3-.2.8-.4,1.2a8.4,8.4,0,0,0-.3,3.3,31.1,31.1,0,0,0,1.5,8.5,46.8,46.8,0,0,0,4,8.9,38.9,38.9,0,0,0,6,8A47.2,47.2,0,0,0,55.8,63.5a25.8,25.8,0,0,0,9.1,2.2,17.9,17.9,0,0,0,4.1-.2,7.8,7.8,0,0,0,3.6-1.3,4.3,4.3,0,0,0,1.6-1.4,6.4,6.4,0,0,0,1.3-1.9,7.1,7.1,0,0,0,.6-2.4,22.6,22.6,0,0,0,.1-2.6A29.6,29.6,0,0,0,73.3,46,56.5,56.5,0,0,0,61,29.2Z"/><path class="m" d="M65.2,61.8a18.3,18.3,0,0,0,8.6-6.4,24.5,24.5,0,0,0-4.7-5.9,9.5,9.5,0,0,1,5.8,1.1l-.8-6c2.5,2.9,3.6,4.7,4.3,8.5,0,0,2.1,1.9,3,2.9l-2,1.7a17.7,17.7,0,0,1-.8,7.2l-2.4-5.6c-3.2,2.5-5.8,3-10.3,2.3"/><path class="a" d="M74.8,25.3a1.4,1.4,0,0,0-.2-1.4,1.7,1.7,0,0,0-1.3-.7H62.8a11.8,11.8,0,0,0-11.4,8.9L46.9,49.6a2.8,2.8,0,0,0,1,2.9l4.5,3.4,7.4-.3a8.7,8.7,0,0,0,7.9-6.1Z"/><path class="d" d="M74.4,25.2a1.1,1.1,0,0,0-.3-1.1.9.9,0,0,0-.6-.3H62.3a11.2,11.2,0,0,0-10.1,7.5,31.8,31.8,0,0,0-.9,3.3L50.4,38l-1.8,6.8-.9,3.4-.4,1.6a2.2,2.2,0,0,0,.2,1.4l.4.6c.1.2.4.3.6.5l1.4,1.1,2.8,2.1h-.3l5.4-.2,2.7-.2a7.3,7.3,0,0,0,2.4-.7,7.9,7.9,0,0,0,3.6-3.4,8.5,8.5,0,0,0,.9-2.4l.8-2.6Zm.9.3L69.5,46.3l-.7,2.6a11.2,11.2,0,0,1-1,2.7,9,9,0,0,1-4.3,4.1,14,14,0,0,1-2.9.9H53.8l-1.4-.2h-.3l-2.8-2.2-1.4-1-.7-.6-.6-.9a3.4,3.4,0,0,1-.2-2l.4-1.7.9-3.4c1.2-4.5,2.3-9,3.6-13.5a12.1,12.1,0,0,1,11-8.2c2.3-.1,4.6,0,7,0h4.5l1,.5A2.5,2.5,0,0,1,75.3,25.5Z"/><path class="d" d="M71.3,37.3H62.2a.4.4,0,0,1-.4-.6c.4-1.7,2.1-6.6,2.5-7.7s-1.3-2.3-2.3.4-6,19-6.3,20.7,1.2,1.8,2.5-1.3A70.9,70.9,0,0,0,60.5,41a1.3,1.3,0,0,1,1.1-.9h8.8Z"/><path class="d" d="M53.1,55.4c1.5.8,3.2,1.8,4.9,2.5a25.4,25.4,0,0,0,5.5,1,14.2,14.2,0,0,0,5.4-.8,12.7,12.7,0,0,0,4.5-3l.8.7a5.2,5.2,0,0,0-1.1,1l-.5.6-.6.4-1.2,1-1.3.9-.6.5-.7.5-.8.5-.8.4a8.7,8.7,0,0,1-3.2.3c-2.2-.3-4.1-1.5-5.9-2.4a33,33,0,0,1-5.1-3.1Z"/><path class="a" d="M26.6,18.5s-.5,10.6,4.8,15.4h5.8l6.1,20-1.8,1.6a2.7,2.7,0,0,1-1.9.8H29.5V49.7l-2-.4,1.1-4,1.4-.3,2.3,1.2s-1.2-1.1-2.7-2.8C24.4,38,20.4,28.6,26.6,18.5Z"/><path class="d" d="M35.7,50.9s5.9-21.7,6.2-22.5,2.4-1.2,1.9.4-4.5,19.1-5.9,22.9S35.7,50.9,35.7,50.9Z"/><polygon class="d" points="27 49.3 28.4 44 29.3 44.2 27.9 49.5 27 49.3"/><polygon class="d" points="32 33.6 30.5 38 31 33.4 32 33.6"/></svg>